<svg width="110" height="66" viewBox="0 0 110 66" fill="none" xmlns="http://www.w3.org/2000/svg">
<g id="Group 4">
<path id="Path 7 Copy" d="M1 66V1H25.1923V18.1744H38V29.4085H49.25V18.1744V1H61V29.4085" stroke="#979797" stroke-width="2"/>
<path id="VENTURAAPPARTMENT" fill-rule="evenodd" clip-rule="evenodd" d="M16.584 37.2002L12.342 47.0002H10.102L5.87402 37.2002H8.32402L11.306 44.2002L14.33 37.2002H16.584ZM25.194 45.1802V47.0002H17.606V37.2002H25.012V39.0202H19.86V41.1482H24.41V42.9122H19.86V45.1802H25.194ZM29.24 47.0002V41.0502L34.126 47.0002H35.988V37.2002H33.748V43.1502L28.876 37.2002H27V47.0002H29.24ZM42.61 39.0482V47.0002H40.342V39.0482H37.206V37.2002H45.746V39.0482H42.61ZM51.318 47.1682C52.718 47.1682 53.8077 46.7809 54.587 46.0062C55.3664 45.2315 55.756 44.1255 55.756 42.6882V37.2002H53.516V42.6042C53.516 43.5095 53.3294 44.1745 52.956 44.5992C52.5827 45.0239 52.0414 45.2362 51.332 45.2362C49.876 45.2362 49.148 44.3589 49.148 42.6042V37.2002H46.88V42.6882C46.88 44.1255 47.2697 45.2315 48.049 46.0062C48.8284 46.7809 49.918 47.1682 51.318 47.1682ZM60.264 44.2702V47.0002H57.996V37.2002H62.238C63.106 37.2002 63.8597 37.3449 64.499 37.6342C65.1384 37.9235 65.6307 38.3342 65.976 38.8662C66.3214 39.3982 66.494 40.0282 66.494 40.7562C66.494 41.4842 66.319 42.1119 65.969 42.6392C65.619 43.1665 65.122 43.5702 64.478 43.8502L66.676 47.0002H64.24L62.35 44.2702H60.264ZM62.112 42.4642H60.264V39.0482H62.112C62.7934 39.0482 63.3114 39.1952 63.666 39.4892C64.0207 39.7832 64.198 40.2055 64.198 40.7562C64.198 41.2975 64.0207 41.7175 63.666 42.0162C63.3114 42.3149 62.7934 42.4642 62.112 42.4642ZM70.19 44.9002L69.322 47.0002H66.998L71.366 37.2002H73.606L77.988 47.0002H75.608L74.74 44.9002H70.19ZM70.918 43.1782L72.472 39.4262L74.026 43.1782H70.918ZM9.06602 60.9002L8.19802 63.0002H5.87402L10.242 53.2002H12.482L16.864 63.0002H14.484L13.616 60.9002H9.06602ZM9.79402 59.1782L11.348 55.4262L12.902 59.1782H9.79402ZM20.154 60.2982V63.0002H17.886V53.2002H22.128C22.996 53.2002 23.7497 53.3449 24.389 53.6342C25.0284 53.9235 25.5207 54.3342 25.866 54.8662C26.2114 55.3982 26.384 56.0282 26.384 56.7562C26.384 57.4749 26.2114 58.1025 25.866 58.6392C25.5207 59.1759 25.0284 59.5865 24.389 59.8712C23.7497 60.1559 22.996 60.2982 22.128 60.2982H20.154ZM22.002 58.4502H20.154V55.0482H22.002C22.6834 55.0482 23.2014 55.1952 23.556 55.4892C23.9107 55.7832 24.088 56.2055 24.088 56.7562C24.088 57.2975 23.9107 57.7152 23.556 58.0092C23.2014 58.3032 22.6834 58.4502 22.002 58.4502ZM30.402 60.2982V63.0002H28.134V53.2002H32.376C33.244 53.2002 33.9977 53.3449 34.637 53.6342C35.2764 53.9235 35.7687 54.3342 36.114 54.8662C36.4594 55.3982 36.632 56.0282 36.632 56.7562C36.632 57.4749 36.4594 58.1025 36.114 58.6392C35.7687 59.1759 35.2764 59.5865 34.637 59.8712C33.9977 60.1559 33.244 60.2982 32.376 60.2982H30.402ZM32.25 58.4502H30.402V55.0482H32.25C32.9314 55.0482 33.4494 55.1952 33.804 55.4892C34.1587 55.7832 34.336 56.2055 34.336 56.7562C34.336 57.2975 34.1587 57.7152 33.804 58.0092C33.4494 58.3032 32.9314 58.4502 32.25 58.4502ZM40.286 60.9002L39.418 63.0002H37.094L41.462 53.2002H43.702L48.084 63.0002H45.704L44.836 60.9002H40.286ZM41.014 59.1782L42.568 55.4262L44.122 59.1782H41.014ZM51.374 60.2702V63.0002H49.106V53.2002H53.348C54.216 53.2002 54.9697 53.3449 55.609 53.6342C56.2484 53.9235 56.7407 54.3342 57.086 54.8662C57.4314 55.3982 57.604 56.0282 57.604 56.7562C57.604 57.4842 57.429 58.1119 57.079 58.6392C56.729 59.1665 56.232 59.5702 55.588 59.8502L57.786 63.0002H55.35L53.46 60.2702H51.374ZM53.222 58.4642H51.374V55.0482H53.222C53.9034 55.0482 54.4214 55.1952 54.776 55.4892C55.1307 55.7832 55.308 56.2055 55.308 56.7562C55.308 57.2975 55.1307 57.7175 54.776 58.0162C54.4214 58.3149 53.9034 58.4642 53.222 58.4642ZM63.694 55.0482V63.0002H61.426V55.0482H58.29V53.2002H66.83V55.0482H63.694ZM70.176 63.0002V57.2462L73.046 61.9642H74.068L76.952 57.1202L76.966 63.0002H79.094L79.066 53.2002H77.204L73.592 59.2902L69.924 53.2002H68.048V63.0002H70.176ZM89.006 61.1802V63.0002H81.418V53.2002H88.824V55.0202H83.672V57.1482H88.222V58.9122H83.672V61.1802H89.006ZM93.052 63.0002V57.0502L97.938 63.0002H99.8V53.2002H97.56V59.1502L92.688 53.2002H90.812V63.0002H93.052ZM106.422 55.0482V63.0002H104.154V55.0482H101.018V53.2002H109.558V55.0482H106.422Z" fill="#979797"/>
</g>
</svg>
