<svg width="195" height="100" viewBox="0 0 195 100" fill="none" xmlns="http://www.w3.org/2000/svg">
<g id="Group 2">
<path id="Josephine" fill-rule="evenodd" clip-rule="evenodd" d="M48.65 74.8498C49.75 76.0998 51.4 75.9998 53.35 74.7498C55.05 73.6998 57.15 71.8498 59.55 69.4998C65.8 63.1998 73.75 53.0498 80 43.3998C83.05 42.3498 84.9 41.7498 84.95 41.7498C85.2 41.6498 85.15 41.1498 84.8 40.6998C84.45 40.2498 83.95 39.9498 83.65 40.0498L81.75 40.6998C84.45 36.2498 86.8 32.0498 88.3 28.4498C90.1 24.3498 89.9 21.2498 88.45 18.9998C87.25 17.1498 85.35 15.9498 83 15.3998C80.95 14.8998 78.45 14.8498 75.85 15.1998C67.2 16.3498 56.5 21.6498 52.2 28.9498C51.25 30.5498 50.65 32.1998 50.4 33.7998C50.1 35.5498 50.25 37.1998 50.75 38.6498C51.4 40.3498 52.5 41.7498 54.05 42.6498C54.8 43.0998 55.65 43.3998 56.55 43.5498C56.95 43.5998 57.05 43.2998 56.85 42.7998C56.6 42.3498 56.1 41.8998 55.7 41.8498C55 41.6998 54.4 41.4998 53.95 41.1998C53.15 40.7498 52.6 40.0498 52.3 39.1498C51.85 37.9998 51.75 36.5498 52 35.0498C52.25 33.5498 52.85 31.9998 53.75 30.3998C57.95 23.2498 68.45 18.0498 76.95 16.9498C79.5 16.5998 81.85 16.6498 83.75 17.0998C85.4 17.4998 86.65 18.1998 87.25 19.1498C88.35 20.7498 88.3 23.3498 86.75 27.0498C84.9 31.2998 82 36.4498 78.55 41.7998C73.4 43.5498 65 46.4998 56.6 49.5998C45.85 53.5998 46.35 58.0498 47.2 65.4498C47.45 67.4998 47.7 69.7498 47.75 72.2498C47.75 73.3498 48.05 74.1998 48.65 74.8498ZM51.95 73.1498C50.55 73.9998 49.65 74.3998 49.45 74.1998C49.416 74.1657 49.4051 74.0157 49.3859 73.7498C49.3768 73.6252 49.366 73.4752 49.35 73.2998C49.3057 70.9958 49.1044 68.9666 48.9199 67.1079C48.8962 66.8691 48.8728 66.6331 48.85 66.3998L48.8461 66.3651C48.0484 59.3358 47.567 55.0936 57.9 51.2998C64.75 48.7498 71.65 46.2998 76.7 44.5498C70.8 53.3498 63.75 62.1998 58.05 67.8998C55.7 70.2498 53.65 72.0998 51.95 73.1498ZM84.8 57.7998C84.15 57.9998 83.5 57.9498 82.85 57.5998C82.5 57.3998 82.15 57.1498 81.85 56.7998L81.55 56.4998C80.75 55.3498 80.8 53.4998 81.35 51.7498C81.9 50.0998 82.85 48.4498 83.95 47.4498C84.025 47.3998 84.1 47.3373 84.175 47.2748C84.25 47.2123 84.325 47.1498 84.4 47.0998C84.6 46.9498 85.1 47.1498 85.5 47.5998C85.9 48.0498 86 48.5498 85.8 48.7498L85.8 48.7498C85.65 48.8498 85.5 48.9498 85.4 49.0498C84.35 49.9998 83.5 51.5498 82.95 53.0998C82.55 54.3998 82.35 55.5998 82.6 56.0998C82.85 56.1998 83.15 56.1998 83.55 56.0998C84 55.9498 84.55 55.6498 85.05 55.1498C85.75 54.5498 86.4 53.6498 87 52.4998C87.35 51.8498 87.6 51.1498 87.8 50.4498C86.9 49.6998 86.25 48.7998 85.85 47.8998C85.45 46.9998 85.3 46.0998 85.35 45.4498C85.45 44.7498 85.75 44.2498 86.35 44.1498C86.8 44.0998 87.2 44.1998 87.6 44.3998C88.25 44.7498 88.8 45.3498 89.15 46.0998C89.45 46.6498 89.6 47.2498 89.7 47.8998C89.8 48.5498 89.8 49.2998 89.7 50.0498C90.8 50.2498 92.45 50.4498 94.2 49.4498L94.2191 49.4382L94.2474 49.4209C94.2886 49.3957 94.3301 49.3703 94.3725 49.3478L94 49.7998L93.9794 49.82C93.9616 49.8373 93.9398 49.8579 93.9149 49.8814L93.9149 49.8815C93.6011 50.1785 92.7908 50.9456 93.15 51.3498C93.1616 51.3613 93.1732 51.3722 93.1851 51.3826C91.7674 51.8523 90.5847 51.8347 89.5 51.4498C89.3 52.2998 89 53.1998 88.55 53.9498C87.95 55.0998 87.25 56.0998 86.5 56.7498C85.9 57.2498 85.35 57.6498 84.8 57.7998ZM94.8744 50.6487L94.35 51.2498C94.1558 51.444 93.5843 51.7326 93.1851 51.3826C93.7132 51.2077 94.2739 50.9651 94.8744 50.6487ZM95.349 50.1046C95.3597 50.283 95.2833 50.4198 95.15 50.4998C95.0572 50.5511 94.9654 50.6007 94.8744 50.6487L95.349 50.1046ZM95.349 50.1046L96.4 48.8998C95.4581 50.6267 95.5328 51.0289 95.6085 51.4363C95.6292 51.548 95.65 51.66 95.65 51.7998C95.9 52.9498 95.75 53.8498 95.4 54.5498C95.25 54.8998 94.95 55.2498 94.65 55.4498C94.35 55.6998 94 55.8498 93.65 55.8998C93.25 55.9998 92.85 55.9998 92.65 55.8998C92.5812 55.8654 92.8916 55.262 93.0916 54.8732L93.0917 54.873L93.0919 54.8727C93.1822 54.6971 93.25 54.5653 93.25 54.5498C93.35 54.2998 93.15 53.7498 92.7 53.3498C92.25 52.9498 91.8 52.8498 91.65 53.0998C91.65 53.1035 91.6415 53.1224 91.6268 53.1549C91.4438 53.5589 90.312 56.0576 92.95 57.3998C93.5 57.6998 94.2 57.7998 94.9 57.6498C95.3 57.5498 95.7 57.3498 96.05 57.0998C96.4 56.7998 96.75 56.4498 97 55.9998C97.4 55.1498 97.55 53.9998 97.25 52.5498C96.7 50.2498 98.1 48.0998 99.15 46.8998L100.35 45.7498C100.55 45.5498 100.35 44.9998 99.95 44.5998C99.6 44.1498 99.1 43.9498 98.9 44.1498C98.9 44.1498 98.4 44.5498 97.75 45.2498L94.3725 49.3478C94.5716 49.2424 94.7911 49.2022 95.1 49.5498C95.2635 49.7599 95.3397 49.9482 95.349 50.1046ZM88.05 49.2498C87.7 48.9498 87.45 48.5998 87.3 48.1998C87.05 47.6498 86.95 47.0998 87 46.6498C87.05 46.1998 87.2 45.8998 87.5 45.8998C87.65 45.8498 87.8 45.8498 87.85 45.8998H87.8C87.9 46.1498 88 46.5498 88.05 46.9998C88.15 47.6498 88.15 48.4498 88.05 49.2498ZM102.85 56.3998C104.981 57.6043 108.772 56.0043 111.689 54.0274C109.194 58.9942 106.878 63.8147 106.65 64.9998C106.2 67.5498 106.85 70.6498 108 69.9998C108.5 69.6998 108.9 68.7998 109.15 67.8998L109.55 67.1998C111.05 64.4498 114.7 57.7998 116.6 54.6998C117.25 55.6498 118.35 56.5998 119.85 56.5998C121.15 56.5998 123.6 53.8498 124.6 51.1998C125.9 48.5498 125.25 44.7498 121.9 45.1998C119.25 45.5498 115.1 53.1998 112.3 58.4998C112.058 58.983 111.799 59.4297 111.554 59.8509C111.393 60.1271 111.239 60.3924 111.1 60.6498C110.6 61.5998 108.35 65.5498 108.05 66.0498L120.2 42.5498C120.4 42.2498 118.4 41.0998 118.15 41.5498C117.95 41.8837 115.748 46.0527 113.322 50.8053C109.997 53.7844 99.4504 58.0974 102.5 51.5498C102.65 51.5498 105.3 51.2498 107.65 50.0498C108.85 49.4498 109.85 48.3498 110.4 47.2998C110.65 46.7998 110.85 46.3498 110.9 45.8998C111 45.2998 110.8 44.6498 110.3 44.0998C109.95 43.6998 109.55 43.4498 109.1 43.3498C108.55 43.2498 107.2 43.8498 105.75 44.8498C104.65 45.6498 103.5 46.6998 102.5 47.7998C101.5 48.9498 100.75 50.2498 100.5 51.4998C100.1 53.4498 101.15 55.4498 102.85 56.3998ZM113.322 50.8053C112.782 51.8624 112.231 52.9484 111.689 54.0274C113.494 52.8041 114.965 51.4364 115.5 50.4998C115.65 50.1998 115.65 49.9998 115.25 49.5998C114.8 49.1998 114.3 49.5498 114.15 49.8498C113.99 50.1384 113.704 50.463 113.322 50.8053ZM107.15 46.4998C106.15 47.2498 105 48.1998 104.1 49.2498C104.8 49.0498 105.55 48.7498 106.35 48.3998C107.4 47.8498 108.3 46.7998 108.85 45.8498C108.9 45.7498 108.938 45.6623 108.975 45.5748L108.975 45.5748L108.975 45.5747C109.013 45.4872 109.05 45.3997 109.1 45.2998C108.55 45.5498 107.9 45.9498 107.15 46.4998ZM117.25 53.5998C117.45 53.9998 117.95 54.8498 118.85 54.8498C119.85 54.8498 121.6 52.1498 122.55 49.6498C122.85 48.8998 123.1 48.2498 123.2 47.6498C123.25 47.0998 123.2 46.6998 123.1 46.5498C123.034 46.4401 123.045 46.4941 123.066 46.5934C123.092 46.7205 123.134 46.9217 123.05 46.9498C121.7 47.0998 119.55 49.9498 117.25 53.5998ZM124.05 56.8998C124.45 57.2998 124.9 57.4498 125.05 57.2498C125.052 57.2477 125.068 57.2299 125.097 57.1979L125.14 57.1497L125.14 57.1496C126.022 56.1668 133.059 48.3245 133.2 49.4998C133.238 49.9481 133.241 50.4359 133.243 50.9353C133.25 52.385 133.257 53.9328 134.15 54.8998C135.083 55.8735 136.839 55.2999 140.113 52.5914C139.784 53.7256 139.77 54.7933 140.25 55.6498C141.547 57.9115 145.081 55.5352 147.692 53.2928L146.85 54.7998C146.7 55.0498 146.95 55.5498 147.35 55.9998C147.75 56.3498 148.2 56.4998 148.35 56.2998C148.55 56.0998 155.2 49.7498 158.05 48.2498C157.9 48.6497 157.7 49.0497 157.5 49.4496L157.5 49.4498L157.473 49.5046C156.53 51.4409 155.471 53.6133 157.7 55.0498C159.096 55.9622 161.312 54.5268 163.066 53.0009C163.285 54.4123 164.189 55.695 165.45 56.3998C168.9 58.3498 176.7 52.9498 178.1 50.4998C178.25 50.1998 178.25 49.9998 177.85 49.5998C177.4 49.1998 176.9 49.5498 176.75 49.8498C175.2 52.6498 161.7 58.8498 165.1 51.5498C165.25 51.5498 167.9 51.2498 170.25 50.0498C171.45 49.4498 172.45 48.3498 173 47.2998C173.25 46.7998 173.45 46.3498 173.5 45.8998C173.6 45.2998 173.4 44.6498 172.9 44.0998C172.55 43.6998 172.15 43.4498 171.7 43.3498C171.15 43.2498 169.8 43.8498 168.35 44.8498C167.25 45.6498 166.1 46.6998 165.1 47.7998C164.19 48.8467 163.486 50.018 163.179 51.1627C161.444 52.491 158.711 54.3462 157.65 53.6498C157.65 53.6498 158.162 52.6603 158.706 51.5832L159.05 50.8998C159.134 50.7209 159.217 50.5477 159.298 50.3802L159.3 50.3759L159.3 50.3748C159.557 49.8422 159.786 49.3672 159.9 48.9498C160.25 47.6998 160 46.7498 158.5 46.2998H158.4C157.3 45.9998 154.35 48.1998 151.65 50.4498L152.9 48.1998C153.05 47.9498 152.85 47.3998 152.4 46.9998C152 46.5998 151.5 46.4998 151.35 46.7498L149.567 49.9396C148.591 50.9006 143.978 55.1674 142.15 54.8998C141.65 54.6498 141.6 53.8498 142.3 52.4498C143.4 50.3498 145.2 48.1998 146.3 47.2498C146.55 47.0498 146.4 46.5498 146 46.0998C145.6 45.6498 145.1 45.4498 144.85 45.6498C143.954 46.3902 142.632 47.9204 141.572 49.5774L141.554 49.5959L141.55 49.5998C137.15 53.6998 135.55 54.0998 135.35 53.8498C135.35 53.8498 135.3 50.5998 135.25 50.1498C134.95 46.8498 132.15 48.0998 129.4 50.1998L140.35 32.4498C140.5 32.1998 140.3 31.6498 139.85 31.2498C139.45 30.8498 138.95 30.6998 138.8 30.9498L123.55 55.6998C123.4 55.9498 123.6 56.4998 124.05 56.8998ZM163.179 51.1627C163.755 50.7217 164.221 50.3388 164.479 50.1266L164.479 50.1264L164.48 50.1262L164.48 50.1259C164.616 50.014 164.694 49.9498 164.7 49.9498C164.85 49.7498 165.4 49.0998 165.8 49.5498C166.164 49.873 166.038 50.0004 165.87 50.1693C165.83 50.2094 165.788 50.2518 165.75 50.2998C165.75 50.2998 164.58 51.684 163.066 53.0009C162.99 52.5098 162.997 52.0031 163.1 51.4998C163.122 51.3878 163.149 51.2753 163.179 51.1627ZM149.567 49.9396C149.685 49.8231 149.75 49.7552 149.75 49.7498L149.782 49.7179C149.986 49.5114 150.32 49.1726 150.7 49.5998C151.127 50.0271 150.969 50.1839 150.78 50.3699L150.75 50.3998C150.746 50.3998 150.683 50.4637 150.57 50.5785L150.569 50.5793L150.568 50.5804L150.568 50.5804L150.568 50.5805C150.148 51.0079 149.044 52.1324 147.692 53.2928L149.567 49.9396ZM141.572 49.5774C141.591 49.5574 141.611 49.5356 141.632 49.5129C141.829 49.2984 142.101 49.001 142.45 49.3498C142.85 49.7998 142.85 50.1498 142.65 50.3498C141.717 51.2172 140.874 51.962 140.113 52.5914C140.264 52.0702 140.482 51.535 140.75 50.9998C140.993 50.5255 141.272 50.0464 141.572 49.5774ZM147.95 44.1998C147.75 44.4498 147.25 44.2498 146.85 43.8498C146.45 43.3998 146.25 42.8998 146.45 42.6498L149.25 39.4498C149.45 39.1998 149.9 39.3998 150.35 39.7998C150.75 40.2498 150.9 40.7498 150.75 40.9998L147.95 44.1998ZM169.75 46.4998C168.75 47.2498 167.6 48.1998 166.7 49.2498C167.4 49.0498 168.15 48.7498 168.95 48.3998C170 47.8498 170.9 46.7998 171.45 45.8498C171.5 45.7498 171.538 45.6623 171.575 45.5748C171.613 45.4873 171.65 45.3998 171.7 45.2998C171.15 45.5498 170.5 45.9498 169.75 46.4998Z" fill="#979797"/>
<path id="Path 10" d="M194 56.5C194 56.5 171.758 13.4414 111.5 13.4414" stroke="#979797" stroke-width="2" stroke-linecap="round"/>
<path id="Path 10 Copy" d="M1.83336 58.4101C1.83336 58.4101 34.462 94.2448 92.6666 78.6489" stroke="#979797" stroke-width="2" stroke-linecap="round"/>
</g>
</svg>
