<svg width="110" height="110" viewBox="0 0 110 110" fill="none" xmlns="http://www.w3.org/2000/svg">
<g id="Group 5">
<circle id="Oval" cx="55" cy="55" r="53.5" stroke="#979797" stroke-width="3"/>
<path id="Path 9" d="M92 91.9756V35.7844H46.5679V23H22V95" stroke="#979797" stroke-width="3"/>
<path id="SUNBEE" fill-rule="evenodd" clip-rule="evenodd" d="M43.68 67.6598C42.7866 68.0464 41.7 68.2398 40.42 68.2398C39.3133 68.2398 38.2433 68.0898 37.21 67.7898C36.1766 67.4898 35.3466 67.0998 34.72 66.6198L35.82 64.1798C36.42 64.6198 37.1333 64.9731 37.96 65.2398C38.7866 65.5064 39.6133 65.6398 40.44 65.6398C41.36 65.6398 42.04 65.5031 42.48 65.2298C42.92 64.9564 43.14 64.5931 43.14 64.1398C43.14 63.8064 43.01 63.5298 42.75 63.3098C42.49 63.0898 42.1566 62.9131 41.75 62.7798C41.3433 62.6464 40.7933 62.4998 40.1 62.3398C39.0333 62.0864 38.16 61.8331 37.48 61.5798C36.8 61.3264 36.2166 60.9198 35.73 60.3598C35.2433 59.7998 35 59.0531 35 58.1198C35 57.3064 35.22 56.5698 35.66 55.9098C36.1 55.2498 36.7633 54.7264 37.65 54.3398C38.5366 53.9531 39.62 53.7598 40.9 53.7598C41.7933 53.7598 42.6666 53.8664 43.52 54.0798C44.3733 54.2931 45.12 54.5998 45.76 54.9998L44.76 57.4598C43.4666 56.7264 42.1733 56.3598 40.88 56.3598C39.9733 56.3598 39.3033 56.5064 38.87 56.7998C38.4366 57.0931 38.22 57.4798 38.22 57.9598C38.22 58.4398 38.47 58.7964 38.97 59.0298C39.47 59.2631 40.2333 59.4931 41.26 59.7198C42.3266 59.9731 43.2 60.2264 43.88 60.4798C44.56 60.7331 45.1433 61.1331 45.63 61.6798C46.1166 62.2264 46.36 62.9664 46.36 63.8998C46.36 64.6998 46.1366 65.4298 45.69 66.0898C45.2433 66.7498 44.5733 67.2731 43.68 67.6598ZM59.47 66.5798C58.3566 67.6864 56.8 68.2398 54.8 68.2398C52.8 68.2398 51.2433 67.6864 50.13 66.5798C49.0166 65.4731 48.46 63.8931 48.46 61.8398V53.9998H51.7V61.7198C51.7 64.2264 52.74 65.4798 54.82 65.4798C55.8333 65.4798 56.6066 65.1764 57.14 64.5698C57.6733 63.9631 57.94 63.0131 57.94 61.7198V53.9998H61.14V61.8398C61.14 63.8931 60.5833 65.4731 59.47 66.5798ZM67.54 67.9998V59.4998L74.52 67.9998H77.18V53.9998H73.98V62.4998L67.02 53.9998H64.34V67.9998H67.54ZM48.5 88.0098C47.5466 88.6698 46.1566 88.9998 44.33 88.9998H37.09V74.9998H43.93C45.6366 74.9998 46.9466 75.3264 47.86 75.9798C48.7733 76.6331 49.23 77.5198 49.23 78.6398C49.23 79.3198 49.0666 79.9264 48.74 80.4598C48.4133 80.9931 47.9566 81.4131 47.37 81.7198C48.17 81.9731 48.7966 82.3964 49.25 82.9898C49.7033 83.5831 49.93 84.3131 49.93 85.1798C49.93 86.4064 49.4533 87.3498 48.5 88.0098ZM43.53 80.7398H40.31V77.4398H43.53C44.33 77.4398 44.9366 77.5764 45.35 77.8498C45.7633 78.1231 45.97 78.5331 45.97 79.0798C45.97 79.6264 45.7633 80.0398 45.35 80.3198C44.9366 80.5998 44.33 80.7398 43.53 80.7398ZM40.31 86.5598H44.09C44.9433 86.5598 45.5866 86.4198 46.02 86.1398C46.4533 85.8598 46.67 85.4264 46.67 84.8398C46.67 83.6798 45.81 83.0998 44.09 83.0998H40.31V86.5598ZM63.23 88.9998V86.3998H55.61V83.1598H62.11V80.6398H55.61V77.5998H62.97V74.9998H52.39V88.9998H63.23ZM76.65 86.3998V88.9998H65.81V74.9998H76.39V77.5998H69.03V80.6398H75.53V83.1598H69.03V86.3998H76.65Z" fill="#979797"/>
</g>
</svg>
