<svg width="120" height="66" viewBox="0 0 120 66" fill="none" xmlns="http://www.w3.org/2000/svg">
<g id="Group 3">
<path id="Path 7" d="M1 66V1H25.1923V18.1744H38V29.4085" stroke="#979797" stroke-width="2"/>
<path id="PACIFICCONDOMINIUM" fill-rule="evenodd" clip-rule="evenodd" d="M35.134 46.7202C34.4433 47.0189 33.6733 47.1682 32.824 47.1682C31.8253 47.1682 30.9223 46.9512 30.115 46.5172C29.3077 46.0832 28.673 45.4812 28.211 44.7112C27.749 43.9412 27.518 43.0709 27.518 42.1002C27.518 41.1296 27.749 40.2592 28.211 39.4892C28.673 38.7192 29.3077 38.1172 30.115 37.6832C30.9223 37.2492 31.83 37.0322 32.838 37.0322C33.6873 37.0322 34.455 37.1816 35.141 37.4802C35.827 37.7789 36.4033 38.2082 36.87 38.7682L35.414 40.1122C34.7513 39.3469 33.93 38.9642 32.95 38.9642C32.3433 38.9642 31.802 39.0972 31.326 39.3632C30.85 39.6292 30.479 40.0002 30.213 40.4762C29.947 40.9522 29.814 41.4936 29.814 42.1002C29.814 42.7069 29.947 43.2482 30.213 43.7242C30.479 44.2002 30.85 44.5712 31.326 44.8372C31.802 45.1032 32.3433 45.2362 32.95 45.2362C33.93 45.2362 34.7513 44.8489 35.414 44.0742L36.87 45.4182C36.4033 45.9876 35.8247 46.4216 35.134 46.7202ZM9.42999 47.0002V44.2982H11.404C12.272 44.2982 13.0257 44.1559 13.665 43.8712C14.3043 43.5866 14.7967 43.1759 15.142 42.6392C15.4873 42.1026 15.66 41.4749 15.66 40.7562C15.66 40.0282 15.4873 39.3982 15.142 38.8662C14.7967 38.3342 14.3043 37.9236 13.665 37.6342C13.0257 37.3449 12.272 37.2002 11.404 37.2002H7.16199V47.0002H9.42999ZM11.278 42.4502H9.42999V39.0482H11.278C11.9593 39.0482 12.4773 39.1952 12.832 39.4892C13.1867 39.7832 13.364 40.2056 13.364 40.7562C13.364 41.2976 13.1867 41.7152 12.832 42.0092C12.4773 42.3032 11.9593 42.4502 11.278 42.4502ZM19.314 44.9002L18.446 47.0002H16.122L20.49 37.2002H22.73L27.112 47.0002H24.732L23.864 44.9002H19.314ZM20.042 43.1782L21.596 39.4262L23.15 43.1782H20.042ZM40.664 47.0002V37.2002H38.396V47.0002H40.664ZM45.256 43.4302V47.0002H42.988V37.2002H50.394V39.0202H45.256V41.6102H49.792V43.4302H45.256ZM54.202 47.0002V37.2002H51.934V47.0002H54.202ZM63.526 46.7202C62.8353 47.0189 62.0653 47.1682 61.216 47.1682C60.2173 47.1682 59.3143 46.9512 58.507 46.5172C57.6997 46.0832 57.065 45.4812 56.603 44.7112C56.141 43.9412 55.91 43.0709 55.91 42.1002C55.91 41.1296 56.141 40.2592 56.603 39.4892C57.065 38.7192 57.6997 38.1172 58.507 37.6832C59.3143 37.2492 60.222 37.0322 61.23 37.0322C62.0793 37.0322 62.847 37.1816 63.533 37.4802C64.219 37.7789 64.7953 38.2082 65.262 38.7682L63.806 40.1122C63.1433 39.3469 62.322 38.9642 61.342 38.9642C60.7353 38.9642 60.194 39.0972 59.718 39.3632C59.242 39.6292 58.871 40.0002 58.605 40.4762C58.339 40.9522 58.206 41.4936 58.206 42.1002C58.206 42.7069 58.339 43.2482 58.605 43.7242C58.871 44.2002 59.242 44.5712 59.718 44.8372C60.194 45.1032 60.7353 45.2362 61.342 45.2362C62.322 45.2362 63.1433 44.8489 63.806 44.0742L65.262 45.4182C64.7953 45.9876 64.2167 46.4216 63.526 46.7202ZM11.852 63.1682C12.7013 63.1682 13.4713 63.0189 14.162 62.7202C14.8527 62.4216 15.4313 61.9876 15.898 61.4182L14.442 60.0742C13.7793 60.8489 12.958 61.2362 11.978 61.2362C11.3713 61.2362 10.83 61.1032 10.354 60.8372C9.87799 60.5712 9.50699 60.2002 9.24099 59.7242C8.97499 59.2482 8.84199 58.7069 8.84199 58.1002C8.84199 57.4936 8.97499 56.9522 9.24099 56.4762C9.50699 56.0002 9.87799 55.6292 10.354 55.3632C10.83 55.0972 11.3713 54.9642 11.978 54.9642C12.958 54.9642 13.7793 55.3469 14.442 56.1122L15.898 54.7682C15.4313 54.2082 14.855 53.7789 14.169 53.4802C13.483 53.1816 12.7153 53.0322 11.866 53.0322C10.858 53.0322 9.95032 53.2492 9.14299 53.6832C8.33566 54.1172 7.70099 54.7192 7.23899 55.4892C6.77699 56.2592 6.54599 57.1296 6.54599 58.1002C6.54599 59.0709 6.77699 59.9412 7.23899 60.7112C7.70099 61.4812 8.33566 62.0832 9.14299 62.5172C9.95032 62.9512 10.8533 63.1682 11.852 63.1682ZM24.914 62.5102C24.102 62.9489 23.1873 63.1682 22.17 63.1682C21.1527 63.1682 20.2357 62.9489 19.419 62.5102C18.6023 62.0716 17.963 61.4672 17.501 60.6972C17.039 59.9272 16.808 59.0616 16.808 58.1002C16.808 57.1389 17.039 56.2732 17.501 55.5032C17.963 54.7332 18.6023 54.1289 19.419 53.6902C20.2357 53.2516 21.1527 53.0322 22.17 53.0322C23.1873 53.0322 24.102 53.2516 24.914 53.6902C25.726 54.1289 26.3653 54.7332 26.832 55.5032C27.2987 56.2732 27.532 57.1389 27.532 58.1002C27.532 59.0616 27.2987 59.9272 26.832 60.6972C26.3653 61.4672 25.726 62.0716 24.914 62.5102ZM22.17 61.2362C21.5913 61.2362 21.0687 61.1032 20.602 60.8372C20.1353 60.5712 19.769 60.2002 19.503 59.7242C19.237 59.2482 19.104 58.7069 19.104 58.1002C19.104 57.4936 19.237 56.9522 19.503 56.4762C19.769 56.0002 20.1353 55.6292 20.602 55.3632C21.0687 55.0972 21.5913 54.9642 22.17 54.9642C22.7487 54.9642 23.2713 55.0972 23.738 55.3632C24.2047 55.6292 24.571 56.0002 24.837 56.4762C25.103 56.9522 25.236 57.4936 25.236 58.1002C25.236 58.7069 25.103 59.2482 24.837 59.7242C24.571 60.2002 24.2047 60.5712 23.738 60.8372C23.2713 61.1032 22.7487 61.2362 22.17 61.2362ZM31.48 57.0502V63.0002H29.24V53.2002H31.116L35.988 59.1502V53.2002H38.228V63.0002H36.366L31.48 57.0502ZM45.004 63.0002C46.068 63.0002 47.0083 62.7972 47.825 62.3912C48.6417 61.9852 49.2763 61.4136 49.729 60.6762C50.1817 59.9389 50.408 59.0802 50.408 58.1002C50.408 57.1202 50.1817 56.2616 49.729 55.5242C49.2763 54.7869 48.6417 54.2152 47.825 53.8092C47.0083 53.4032 46.068 53.2002 45.004 53.2002H40.552V63.0002H45.004ZM42.82 61.1382H44.892C45.872 61.1382 46.6537 60.8652 47.237 60.3192C47.8203 59.7732 48.112 59.0336 48.112 58.1002C48.112 57.1669 47.8203 56.4272 47.237 55.8812C46.6537 55.3352 45.872 55.0622 44.892 55.0622H42.82V61.1382ZM56.862 63.1682C57.8793 63.1682 58.794 62.9489 59.606 62.5102C60.418 62.0716 61.0573 61.4672 61.524 60.6972C61.9907 59.9272 62.224 59.0616 62.224 58.1002C62.224 57.1389 61.9907 56.2732 61.524 55.5032C61.0573 54.7332 60.418 54.1289 59.606 53.6902C58.794 53.2516 57.8793 53.0322 56.862 53.0322C55.8447 53.0322 54.9277 53.2516 54.111 53.6902C53.2943 54.1289 52.655 54.7332 52.193 55.5032C51.731 56.2732 51.5 57.1389 51.5 58.1002C51.5 59.0616 51.731 59.9272 52.193 60.6972C52.655 61.4672 53.2943 62.0716 54.111 62.5102C54.9277 62.9489 55.8447 63.1682 56.862 63.1682ZM55.294 60.8372C55.7607 61.1032 56.2833 61.2362 56.862 61.2362C57.4407 61.2362 57.9633 61.1032 58.43 60.8372C58.8967 60.5712 59.263 60.2002 59.529 59.7242C59.795 59.2482 59.928 58.7069 59.928 58.1002C59.928 57.4936 59.795 56.9522 59.529 56.4762C59.263 56.0002 58.8967 55.6292 58.43 55.3632C57.9633 55.0972 57.4407 54.9642 56.862 54.9642C56.2833 54.9642 55.7607 55.0972 55.294 55.3632C54.8273 55.6292 54.461 56.0002 54.195 56.4762C53.929 56.9522 53.796 57.4936 53.796 58.1002C53.796 58.7069 53.929 59.2482 54.195 59.7242C54.461 60.2002 54.8273 60.5712 55.294 60.8372ZM66.06 63.0002V57.2462L68.93 61.9642H69.952L72.836 57.1202L72.85 63.0002H74.978L74.95 53.2002H73.088L69.476 59.2902L65.808 53.2002H63.932V63.0002H66.06ZM77.302 53.2002H79.57V63.0002H77.302V53.2002ZM84.134 63.0002V57.0502L89.02 63.0002H90.882V53.2002H88.642V59.1502L83.77 53.2002H81.894V63.0002H84.134ZM93.206 53.2002H95.474V63.0002H93.206V53.2002ZM102.152 63.1682C103.552 63.1682 104.642 62.7809 105.421 62.0062C106.2 61.2316 106.59 60.1256 106.59 58.6882V53.2002H104.35V58.6042C104.35 59.5096 104.163 60.1746 103.79 60.5992C103.417 61.0239 102.875 61.2362 102.166 61.2362C100.71 61.2362 99.982 60.3589 99.982 58.6042V53.2002H97.714V58.6882C97.714 60.1256 98.1037 61.2316 98.883 62.0062C99.6623 62.7809 100.752 63.1682 102.152 63.1682ZM110.958 57.2462V63.0002H108.83V53.2002H110.706L114.374 59.2902L117.986 53.2002H119.848L119.876 63.0002H117.748L117.734 57.1202L114.85 61.9642H113.828L110.958 57.2462Z" fill="#979797"/>
</g>
</svg>
